<svg width="1024" height="1024" viewBox="0 0 1024 1024" fill="none" xmlns="http://www.w3.org/2000/svg">
<g clip-path="url(#clip0_8029_2988)">
<path d="M256 597.333C397.385 597.333 512 482.718 512 341.333C512 199.948 397.385 85.3333 256 85.3333C114.615 85.3333 0 199.948 0 341.333C0 482.718 114.615 597.333 256 597.333Z" fill="#7CA1F3"/>
<path d="M768 597.333C909.385 597.333 1024 482.718 1024 341.333C1024 199.948 909.385 85.3333 768 85.3333C626.615 85.3333 512 199.948 512 341.333C512 482.718 626.615 597.333 768 597.333Z" fill="#7CA1F3"/>
<path d="M512 938.667C653.385 938.667 768 824.052 768 682.667C768 541.282 653.385 426.667 512 426.667C370.615 426.667 256 541.282 256 682.667C256 824.052 370.615 938.667 512 938.667Z" fill="#7CA1F3"/>
<path d="M512 460.8L256 341.333" stroke="#5988F0" stroke-width="17.0667"/>
<path d="M512 460.8L768 341.333" stroke="#5988F0" stroke-width="17.0667"/>
<path d="M512 460.8V682.666" stroke="#5988F0" stroke-width="17.0667"/>
<path d="M527 427C631.882 432.944 719.873 502.025 753.569 596.835C648.688 590.891 560.696 521.81 527 427Z" fill="#3B82F6"/>
<path d="M497.569 427C392.688 432.944 304.696 502.025 271 596.835C375.882 590.891 463.873 521.81 497.569 427Z" fill="#3B82F6"/>
<path d="M512 529.067C549.702 529.067 580.266 498.503 580.266 460.8C580.266 423.097 549.702 392.533 512 392.533C474.297 392.533 443.733 423.097 443.733 460.8C443.733 498.503 474.297 529.067 512 529.067Z" fill="#2563EB"/>
<path d="M1024 341.331L1023.99 342.986C1023.95 348.991 1023.71 354.946 1023.26 360.845C1003.11 384.003 994.13 405.912 994.13 426.664C994.13 435.064 995.604 443.653 998.692 452.438C994.084 461.989 988.9 471.21 983.186 480.056C973.604 462.742 968.53 444.937 968.53 426.664C968.53 393.628 985.106 362.119 1014.95 332.28L1024 341.331Z" fill="#5988F0"/>
<path d="M998.698 452.43C1004.38 468.591 1015.53 485.415 1033.05 502.938L1024 511.99L1014.95 521.04C1001.62 507.706 990.931 494.037 983.19 480.048C988.905 471.202 994.089 461.981 998.698 452.43Z" fill="#7CA1F3"/>
<path d="M1.05615 342.051L1.06201 343.706C1.10003 349.711 1.34583 355.666 1.79053 361.565C21.939 384.723 30.9232 406.632 30.9233 427.384C30.9233 435.784 29.4495 444.373 26.3608 453.158C30.9692 462.709 36.153 471.93 41.8677 480.776C51.4497 463.462 56.5229 445.657 56.5229 427.384C56.5228 394.348 39.9471 362.839 10.1079 333L1.05615 342.051Z" fill="#5988F0"/>
<path d="M26.3555 453.15C20.6737 469.311 9.52319 486.134 -8 503.658L1.05078 512.709L10.1025 521.76C23.4372 508.426 34.1218 494.757 41.8633 480.768C36.1486 471.922 30.9639 462.701 26.3555 453.15Z" fill="#7CA1F3"/>
</g>
<defs>
<clipPath id="clip0_8029_2988">
<rect width="1024" height="1024" fill="white"/>
</clipPath>
</defs>
</svg>
